<svg viewBox="0 0 590 637" version="1.1" xmlns="http://www.w3.org/2000/svg" desc="Created with imagetracer.js version 1.2.6"><path fill="rgb(0,0,0)" stroke="rgb(0,0,0)" stroke-width="0" opacity="0" d="M 0 0 L 590 0 L 590 637 L 0 637 L 0 0 Z M 286 34 L 238 46 L 224 51 L 113 82 L 103 86 L 74 93 Q 60 97 51 106 Q 38 116 34 136 L 34 353 L 34 355 L 37 375 L 44 398 L 59 428 L 73 445 L 73 168 L 77 157 L 86 144 L 102 135 L 111 133 L 113 133 L 119 131 L 143 129 L 145 129 L 146 128 L 154 128 L 163 126 L 172 126 L 181 124 L 207 122 L 208 121 L 219 121 L 229 119 L 237 119 L 238 118 L 246 118 L 247 117 L 255 117 L 256 116 L 265 116 L 275 114 L 283 114 L 284 113 L 312 111 L 313 110 L 329 109 L 330 108 L 339 108 L 356 105 L 375 104 L 377 104 L 394 101 L 403 101 L 413 99 L 422 99 L 432 97 L 459 95 L 468 93 L 486 92 L 494 90 Q 500 92 499 88 L 471 81 L 417 64 L 410 63 L 379 53 L 316 36 Q 310 38 311 35 L 310 35 L 307 34 L 286 34 Z M 549 122 L 532 125 L 525 125 L 524 126 L 516 126 L 515 127 L 492 129 L 491 130 L 475 131 L 474 132 L 420 138 L 419 139 L 411 139 L 403 141 L 395 141 L 387 143 L 340 148 L 332 150 L 324 150 L 323 151 L 301 153 L 300 154 L 261 158 L 260 159 L 238 161 L 223 164 L 160 171 L 153 173 L 133 175 L 121 181 L 112 191 L 108 200 Q 110 206 107 208 L 107 288 L 109 289 L 160 280 L 199 275 L 205 273 L 219 272 L 231 269 L 250 267 L 282 261 L 289 261 L 308 257 L 321 256 L 334 253 L 340 253 L 353 250 L 366 249 L 379 246 L 385 246 L 386 245 L 426 239 Q 445 230 457 214 Q 459 215 458 213 L 462 210 L 463 207 L 446 210 L 432 211 L 431 212 L 425 211 L 421 206 L 421 186 L 420 185 L 420 172 L 421 170 L 429 165 L 466 161 L 467 160 L 478 160 L 480 161 L 483 169 L 483 191 Q 487 192 486 190 L 489 188 L 490 185 L 497 180 Q 496 177 499 178 L 513 164 L 513 162 L 515 162 L 537 140 Q 536 137 539 138 L 553 123 L 549 122 Z M 555 146 L 553 151 L 461 263 Q 461 266 456 266 L 456 268 L 378 362 L 376 361 L 350 335 L 324 308 L 321 307 L 270 317 L 268 317 L 270 322 L 352 438 L 359 443 L 367 442 L 507 268 Q 506 265 509 266 L 520 251 L 556 208 L 556 148 L 555 146 Z M 466 178 L 454 181 L 450 186 L 451 194 L 455 196 Q 464 197 470 194 L 473 190 L 472 183 L 466 178 Z M 555 234 L 367 494 L 361 498 L 354 496 L 312 459 Q 294 474 274 486 L 242 502 L 194 519 L 160 526 Q 156 525 157 528 Q 180 547 207 563 L 208 566 L 210 565 L 229 577 L 256 591 L 278 600 L 289 603 L 304 603 L 317 599 L 373 571 Q 425 539 470 499 Q 504 468 529 429 Q 541 410 549 387 L 555 358 L 555 234 Z M 213 316 L 195 320 L 172 323 L 167 325 L 161 325 L 150 328 L 145 328 L 139 330 L 133 330 L 122 333 L 109 334 L 107 336 L 107 470 L 110 478 L 116 483 L 127 486 L 150 485 L 162 482 L 173 481 L 214 469 Q 259 451 292 421 L 292 418 L 230 322 Q 225 315 213 316 Z "></path><path fill="rgb(0,0,0)" stroke="rgb(0,0,0)" stroke-width="0" opacity="0" d="M 231.5 203 L 236.5 204 L 240 206.5 L 241 212.5 L 237.5 217 L 214.5 221 L 198.5 222 L 195 219.5 L 194 212.5 L 197.5 208 L 216.5 206 L 223.5 204 L 230.5 204 L 231.5 203 Z "></path><path fill="rgb(0,0,0)" stroke="rgb(0,0,0)" stroke-width="0" opacity="0" d="M 170.5 210 Q 178.8 208.7 181 213.5 Q 182 221 180 224 L 174.5 226 L 169.5 226 L 162.5 228 L 138.5 230 Q 134.1 227.9 134 221.5 L 138.5 215 L 145.5 213 L 153.5 213 L 170.5 210 Z "></path><path fill="rgb(0,0,0)" stroke="rgb(0,0,0)" stroke-width="0" opacity="0" d="M 201.5 239 L 210.5 239 L 213 241.5 Q 215 250 210.5 252 L 189.5 256 L 182.5 256 L 181.5 257 L 166.5 258 L 147.5 262 L 140.5 262 Q 135.3 259 137 250 L 142.5 247 L 155.5 246 L 170.5 243 L 177.5 243 L 178.5 242 L 185.5 242 L 193.5 240 L 200.5 240 L 201.5 239 Z "></path><path fill="rgb(44,74,179)" stroke="rgb(44,74,179)" stroke-width="0" opacity="0.9921568627450981" d="M 289.5 34 L 309.5 35 L 329.5 40 L 438.5 71 L 465.5 80 L 497 88 Q 498.1 91.5 490.5 90 L 489.5 91 L 471.5 92 L 470.5 93 L 444.5 95 L 443.5 96 L 427.5 97 L 426.5 98 L 407.5 99 L 406.5 100 L 398.5 100 L 397.5 101 L 389.5 101 L 388.5 102 L 380.5 102 L 370.5 104 L 361.5 104 L 360.5 105 L 352.5 105 L 351.5 106 L 343.5 106 L 333.5 108 L 324.5 108 L 323.5 109 L 298.5 111 L 297.5 112 L 278.5 113 L 277.5 114 L 250.5 116 L 249.5 117 L 241.5 117 L 232.5 119 L 212.5 120 L 211.5 121 L 203.5 121 L 194.5 123 L 184.5 123 L 183.5 124 L 131.5 129 L 122.5 131 L 113.5 131 Q 91.8 134.8 81 149.5 Q 74.3 157.8 72 170.5 L 71.5 443 L 59 426.5 L 45 398.5 L 38 376.5 L 35 359.5 L 35 347.5 L 34 346.5 L 34 344.5 L 34 140.5 L 36 129.5 L 40 119.5 L 53.5 104 L 75.5 93 L 97.5 88 L 124.5 79 L 145.5 74 L 155.5 70 L 190.5 61 L 239.5 46 L 289.5 34 Z "></path><path fill="rgb(44,74,179)" stroke="rgb(44,74,179)" stroke-width="0" opacity="0.9921568627450981" d="M 548.5 123 L 551 123.5 L 485.5 190 L 484 189.5 L 484 175.5 L 483 174.5 L 483 165.5 L 477.5 159 L 461.5 160 L 438.5 164 L 430.5 164 L 423.5 166 L 420 169.5 L 419 177.5 L 420 178.5 L 421 207.5 L 423.5 211 Q 427 213.5 434.5 212 L 435.5 211 L 461.5 208 L 454.5 216 L 437.5 232 Q 431.8 237.3 422.5 239 L 108 288 L 108 202.5 Q 111.1 188.1 121.5 181 L 135.5 175 L 149.5 174 L 171.5 170 L 179.5 170 L 180.5 169 L 195.5 168 L 196.5 167 L 241.5 162 L 249.5 160 L 295.5 155 L 303.5 153 L 319.5 152 L 320.5 151 L 343.5 149 L 351.5 147 L 358.5 147 L 359.5 146 L 366.5 146 L 383.5 143 L 391.5 143 L 399.5 141 L 406.5 141 L 407.5 140 L 414.5 140 L 415.5 139 L 422.5 139 L 430.5 137 L 438.5 137 L 446.5 135 L 478.5 132 L 479.5 131 L 486.5 131 L 503.5 128 L 511.5 128 L 520.5 126 L 528.5 126 L 537.5 124 L 547.5 124 L 548.5 123 Z M 228 203 L 227 204 L 213 205 L 197 208 L 193 215 L 194 219 L 200 223 L 232 219 L 239 217 Q 242 215 241 208 Q 239 201 228 203 Z M 166 210 L 150 213 L 142 213 L 138 215 Q 132 217 134 227 L 140 231 L 178 226 L 182 221 L 181 213 L 178 210 L 166 210 Z M 205 238 L 197 240 L 190 240 L 182 242 L 146 246 Q 139 247 136 252 L 137 260 L 142 263 L 165 259 L 194 256 L 212 252 L 214 249 L 214 243 L 212 239 Q 210 237 205 238 Z "></path><path fill="rgb(44,74,179)" stroke="rgb(44,74,179)" stroke-width="0" opacity="0.9921568627450981" d="M 463.5 179 Q 469.9 179.1 472 183.5 Q 473.3 191.8 468.5 194 L 456.5 196 L 452 194 Q 450.1 191.3 451 184.5 L 454.5 181 L 463.5 179 Z "></path><path fill="rgb(44,74,179)" stroke="rgb(44,74,179)" stroke-width="0" opacity="0.9921568627450981" d="M 553.5 237 L 555 251.5 L 554 255.5 L 555 256.5 L 555 309.5 L 555 311.5 Q 556.5 317 554 318.5 L 555 319.5 L 555 350.5 L 554 351.5 L 554 362.5 L 549 384.5 L 544 398.5 L 532 422.5 Q 504.3 467.8 465.5 502 Q 426.6 536.6 381.5 565 Q 351.6 583.6 317.5 598 L 306.5 602 L 292.5 603 L 278.5 600 L 268.5 596 L 229.5 577 Q 191 555 158 527.5 Q 157.4 524.8 163.5 526 L 198.5 518 L 247.5 500 Q 283 483.5 311.5 460 L 351.5 495 Q 354.4 499.1 362.5 498 L 369 491.5 L 389 464.5 L 553.5 237 Z "></path><path fill="rgb(44,74,179)" stroke="rgb(44,74,179)" stroke-width="0" opacity="0.9921568627450981" d="M 209.5 317 L 224.5 318 L 232 324.5 L 292 419.5 Q 258.2 452.2 209.5 470 L 178.5 479 L 158.5 482 L 152.5 484 Q 147 482.5 145.5 485 L 123.5 485 Q 115.2 483.8 111 478.5 L 108 472.5 L 108 335 L 141.5 330 L 164.5 325 L 169.5 325 L 175.5 323 L 186.5 322 L 209.5 317 Z "></path><path fill="rgb(91,178,71)" stroke="rgb(91,178,71)" stroke-width="0" opacity="0.9686274509803922" d="M 554.5 149 L 555 207.5 Q 462.3 319.3 373 434.5 L 365.5 442 L 360.5 443 Q 353.6 441.4 351 435.5 L 269 318.5 L 278.5 315 L 289.5 314 L 294.5 312 Q 307.2 311.7 316.5 308 L 322.5 308 Q 351.2 333.9 375 363 Q 378.7 364.5 378 361.5 Q 467.7 256.7 554.5 149 Z M 554 175 L 553 198 L 554 198 L 554 175 Z "></path><path fill="rgb(111,201,85)" stroke="rgb(111,201,85)" stroke-width="0" opacity="0.984313725490196" d="M 548.5 159 L 547 161.5 L 542.5 167 L 546 162.5 L 548.5 159 Z "></path><path fill="rgb(111,201,85)" stroke="rgb(111,201,85)" stroke-width="0" opacity="0.984313725490196" d="M 553.5 175 L 554 197.5 L 553 197.5 L 553.5 175 Z "></path><path fill="rgb(111,201,85)" stroke="rgb(111,201,85)" stroke-width="0" opacity="0.984313725490196" d="M 555.5 185 L 556 194.5 L 555 194.5 L 555.5 185 Z "></path><path fill="rgb(111,201,85)" stroke="rgb(111,201,85)" stroke-width="0" opacity="0.984313725490196" d="M 519.5 194 L 519 195.5 L 509.5 207 L 514 201.5 L 519.5 194 Z "></path><path fill="rgb(111,201,85)" stroke="rgb(111,201,85)" stroke-width="0" opacity="0.984313725490196" d="M 502.5 215 L 501 217.5 L 497.5 222 L 500 218.5 L 502.5 215 Z "></path><path fill="rgb(111,201,85)" stroke="rgb(111,201,85)" stroke-width="0" opacity="0.984313725490196" d="M 487.5 233 L 488 234.5 L 482 239.5 L 487.5 233 Z "></path><path fill="rgb(111,201,85)" stroke="rgb(111,201,85)" stroke-width="0" opacity="0.984313725490196" d="M 527.5 237 L 528 238.5 L 523 242.5 L 527.5 237 Z "></path><path fill="rgb(111,201,85)" stroke="rgb(111,201,85)" stroke-width="0" opacity="0.984313725490196" d="M 519.5 247 L 518 249.5 L 514.5 254 L 517 250.5 L 519.5 247 Z "></path><path fill="rgb(111,201,85)" stroke="rgb(111,201,85)" stroke-width="0" opacity="0.984313725490196" d="M 461.5 265 L 458 269.5 L 452.5 276 L 457 270.5 L 461.5 265 Z "></path><path fill="rgb(111,201,85)" stroke="rgb(111,201,85)" stroke-width="0" opacity="0.984313725490196" d="M 318.5 310 Q 323.6 309.4 325 312.5 L 327.5 316 L 331 318.5 L 328.5 317 L 324 313.5 Q 324.8 311.3 322.5 312 L 318.5 311 L 318.5 310 Z "></path><path fill="rgb(111,201,85)" stroke="rgb(111,201,85)" stroke-width="0" opacity="0.984313725490196" d="M 341.5 330 L 348 335.5 L 344.5 333 L 341.5 330 Z "></path><path fill="rgb(111,201,85)" stroke="rgb(111,201,85)" stroke-width="0" opacity="0.984313725490196" d="M 452.5 331 L 450 334.5 L 448.5 337 L 449 335.5 L 452.5 331 Z "></path><path fill="rgb(111,201,85)" stroke="rgb(111,201,85)" stroke-width="0" opacity="0.984313725490196" d="M 325.5 395 L 330 400.5 L 327 398.5 L 325.5 395 Z "></path><path fill="rgb(111,201,85)" stroke="rgb(111,201,85)" stroke-width="0" opacity="0.984313725490196" d="M 337.5 412 L 344 421.5 L 343 421.5 L 337.5 412 Z "></path><path fill="rgb(111,201,85)" stroke="rgb(111,201,85)" stroke-width="0" opacity="0.984313725490196" d="M 353.5 434 L 357.5 439 L 359 439.5 L 357.5 440 Q 353.4 437.7 353.5 434 Z "></path></svg>